:FULLY-SPECIFIED
:FORCE-ALL-JOINTS-BE-3DOF
:DEGREES
985
root 1.10772 15.1465 32.4971 5.37767 -4.64879 4.14696
lfemur 8.71218 1.74251 5.18329
ltibia 3.65764e-14 -0 0
lfoot -30.1493 -11.6615 -9.35148e-07
ltoes -33.844 0 0
rfemur -33.0119 -15.6678 -6.25967
rtibia 50.9703 -0 0
rfoot -22.784 4.9678 0.000155448
rtoes -42.1192 0 0
lowerback -1.47137 -0.452568 0.610146
upperback -0.744643 -0.609606 -5.92746
thorax -0.0130237 -0.322774 -6.50285
lowerneck -6.59457 1.17773 5.88207
upperneck 0.921774 1.00051 3.35373
head 1.41025 0.597476 0.0897023
lclavicle 4.17448e-15 7.79236e-14 0
lhumerus -58.6751 -45.4646 115.046
lradius 55.1178 -0 0
lwrist 25.39 0 0
lhand 37.2842 24.4254 6.78137e-06
lfingers 7.12502 -0 0
lthumb 60.1084 38.0914 1.19031e-07
rclavicle 4.17448e-15 7.79236e-14 0
rhumerus 3.76945 -24.7476 -0.0254069
rradius 28.1301 -0 0
rwrist -11.5385 0 0
rhand -31.2793 -44.4686 3.07517e-05
rfingers 7.12502 -0 0
rthumb -4.55279 -74.3995 2.98045e-05
986
root 1.11079 15.1482 32.4916 5.3462 -4.62166 4.13051
lfemur 8.70797 1.70686 5.19007
ltibia 3.65764e-14 -0 0
lfoot -30.1494 -11.6392 -9.20536e-07
ltoes -33.8646 0 0
rfemur -32.9444 -15.6747 -6.25414
rtibia 50.8964 -0 0
rfoot -22.7913 4.92924 0.000153019
rtoes -42.2117 0 0
lowerback -1.46238 -0.437524 0.607928
upperback -0.738161 -0.58925 -5.91322
thorax -0.00879034 -0.312245 -6.48606
lowerneck -6.62393 1.17796 5.88034
upperneck 0.966556 0.99626 3.36466
head 1.42977 0.597376 0.0935374
lclavicle 4.17448e-15 7.79236e-14 0
lhumerus -58.6474 -45.4874 115.07
lradius 55.1125 -0 0
lwrist 25.3732 0 0
lhand 37.2806 24.4221 6.67541e-06
lfingers 7.12502 -0 0
lthumb 60.1053 38.0914 1.17172e-07
rclavicle 4.17448e-15 7.79236e-14 0
rhumerus 3.76645 -24.6993 -0.0581827
rradius 28.1041 -0 0
rwrist -11.4764 0 0
rhand -31.2783 -44.4125 3.02712e-05
rfingers 7.12502 -0 0
rthumb -4.55184 -74.3434 2.93388e-05
987
root 1.11385 15.1499 32.486 5.31473 -4.59454 4.11405
lfemur 8.70376 1.67121 5.19686
ltibia 3.65764e-14 -0 0
lfoot -30.1495 -11.6168 -8.76701e-07
ltoes -33.8852 0 0
rfemur -32.877 -15.6815 -6.24861
rtibia 50.8225 -0 0
rfoot -22.7985 4.89069 0.000145733
rtoes -42.3043 0 0
lowerback -1.45339 -0.422479 0.605712
upperback -0.731673 -0.568896 -5.89897
thorax -0.00455391 -0.301718 -6.46927
lowerneck -6.65329 1.1782 5.87861
upperneck 1.01134 0.992006 3.37559
head 1.44929 0.597275 0.0973725
lclavicle 4.17448e-15 7.79236e-14 0
lhumerus -58.6198 -45.5102 115.094
lradius 55.1072 -0 0
lwrist 25.3564 0 0
lhand 37.277 24.4188 6.35753e-06
lfingers 7.12502 -0 0
lthumb 60.1022 38.0913 1.11592e-07
rclavicle 4.17448e-15 7.79236e-14 0
rhumerus 3.76342 -24.651 -0.0909486
rradius 28.0782 -0 0
rwrist -11.4143 0 0
rhand -31.2773 -44.3564 2.88297e-05
rfingers 7.12502 -0 0
rthumb -4.55089 -74.2874 2.79417e-05
988
root 1.11691 15.1516 32.4804 5.28325 -4.56742 4.09758
lfemur 8.69955 1.63556 5.20365
ltibia 3.65764e-14 -0 0
lfoot -30.1495 -11.5945 -8.03643e-07
ltoes -33.9058 0 0
rfemur -32.8095 -15.6884 -6.2431
rtibia 50.7486 -0 0
rfoot -22.8057 4.85213 0.000133588
rtoes -42.3968 0 0
lowerback -1.4444 -0.407434 0.603498
upperback -0.725181 -0.548543 -5.88473
thorax -0.000314393 -0.291193 -6.45247
lowerneck -6.68265 1.17843 5.87687
upperneck 1.05612 0.987744 3.38652
head 1.46881 0.597172 0.101207
lclavicle 4.17448e-15 7.79236e-14 0
lhumerus -58.5922 -45.533 115.119
lradius 55.102 -0 0
lwrist 25.3396 0 0
lhand 37.2734 24.4154 5.82774e-06
lfingers 7.12502 -0 0
lthumb 60.0991 38.0912 1.02293e-07
rclavicle 4.17448e-15 7.79236e-14 0
rhumerus 3.76037 -24.6028 -0.123705
rradius 28.0522 -0 0
rwrist -11.3522 0 0
rhand -31.2763 -44.3003 2.64272e-05
rfingers 7.12502 -0 0
rthumb -4.54994 -74.2313 2.56132e-05
989
root 1.11997 15.1533 32.4749 5.25176 -4.54032 4.08109
lfemur 8.69533 1.59991 5.21044
ltibia 3.65764e-14 -0 0
lfoot -30.1496 -11.5722 -7.01361e-07
ltoes -33.9263 0 0
rfemur -32.742 -15.6953 -6.23759
rtibia 50.6747 -0 0
rfoot -22.8129 4.81357 0.000116586
rtoes -42.4893 0 0
lowerback -1.43542 -0.392389 0.601287
upperback -0.718684 -0.528193 -5.87048
thorax 0.0039282 -0.280668 -6.43568
lowerneck -6.71201 1.17867 5.87514
upperneck 1.10089 0.983473 3.39744
head 1.48833 0.597068 0.105042
lclavicle 4.17448e-15 7.79236e-14 0
lhumerus -58.5646 -45.5559 115.143
lradius 55.0967 -0 0
lwrist 25.3227 0 0
lhand 37.2697 24.4121 5.08603e-06
lfingers 7.12502 -0 0
lthumb 60.096 38.0912 8.92736e-08
rclavicle 4.17448e-15 7.79236e-14 0
rhumerus 3.75728 -24.5545 -0.156451
rradius 28.0263 -0 0
rwrist -11.2901 0 0
rhand -31.2753 -44.2441 2.30637e-05
rfingers 7.12502 -0 0
rthumb -4.54899 -74.1752 2.23534e-05
990
root 1.12303 15.155 32.4693 5.22027 -4.51323 4.06459
lfemur 8.6911 1.56426 5.21723
ltibia 3.65764e-14 -0 0
lfoot -30.1497 -11.5499 -5.69856e-07
ltoes -33.9469 0 0
rfemur -32.6745 -15.7021 -6.2321
rtibia 50.6008 -0 0
rfoot -22.8201 4.77502 9.47261e-05
rtoes -42.5818 0 0
lowerback -1.42643 -0.377343 0.599078
upperback -0.712182 -0.507843 -5.85623
thorax 0.00817388 -0.270145 -6.41889
lowerneck -6.74137 1.1789 5.8734
upperneck 1.14567 0.979194 3.40836
head 1.50785 0.596963 0.108877
lclavicle 4.17448e-15 7.79236e-14 0
lhumerus -58.5369 -45.5787 115.167
lradius 55.0914 -0 0
lwrist 25.3059 0 0
lhand 37.2661 24.4087 4.1324e-06
lfingers 7.12502 -0 0
lthumb 60.0929 38.0911 7.25348e-08
rclavicle 4.17448e-15 7.79236e-14 0
rhumerus 3.75417 -24.5062 -0.189187
rradius 28.0004 -0 0
rwrist -11.2279 0 0
rhand -31.2743 -44.188 1.87393e-05
rfingers 7.12502 -0 0
rthumb -4.54804 -74.1192 1.81621e-05
991
root 1.12609 15.1568 32.4637 5.18877 -4.48614 4.04808
lfemur 8.68688 1.52862 5.22403
ltibia 3.65764e-14 -0 0
lfoot -30.1498 -11.5275 -4.09127e-07
ltoes -33.9675 0 0
rfemur -32.6071 -15.709 -6.22661
rtibia 50.5269 -0 0
rfoot -22.8274 4.73646 6.80084e-05
rtoes -42.6743 0 0
lowerback -1.41744 -0.362297 0.596872
upperback -0.705675 -0.487496 -5.84197
thorax 0.0124226 -0.259622 -6.40209
lowerneck -6.77072 1.17913 5.87167
upperneck 1.19045 0.974906 3.41928
head 1.52738 0.596857 0.112712
lclavicle 4.17448e-15 7.79236e-14 0
lhumerus -58.5093 -45.6015 115.191
lradius 55.0861 -0 0
lwrist 25.2891 0 0
lhand 37.2625 24.4054 2.96685e-06
lfingers 7.12502 -0 0
lthumb 60.0898 38.091 5.20763e-08
rclavicle 4.17448e-15 7.79236e-14 0
rhumerus 3.75102 -24.4579 -0.221914
rradius 27.9744 -0 0
rwrist -11.1658 0 0
rhand -31.2734 -44.1319 1.34538e-05
rfingers 7.12502 -0 0
rthumb -4.54708 -74.0631 1.30394e-05
992
root 1.12915 15.1585 32.4582 5.15726 -4.45907 4.03154
lfemur 8.68265 1.49297 5.23083
ltibia 3.65764e-14 -0 0
lfoot -30.1498 -11.5052 -2.19175e-07
ltoes -33.988 0 0
rfemur -32.5396 -15.7159 -6.22112
rtibia 50.453 -0 0
rfoot -22.8346 4.69791 3.64331e-05
rtoes -42.7669 0 0
lowerback -1.40846 -0.347251 0.594668
upperback -0.699162 -0.467149 -5.82772
thorax 0.0166745 -0.249102 -6.3853
lowerneck -6.80008 1.17936 5.86993
upperneck 1.23522 0.970609 3.43019
head 1.5469 0.596749 0.116547
lclavicle 4.17448e-15 7.79236e-14 0
lhumerus -58.4817 -45.6244 115.216
lradius 55.0809 -0 0
lwrist 25.2722 0 0
lhand 37.2588 24.402 1.58938e-06
lfingers 7.12502 -0 0
lthumb 60.0867 38.091 2.7898e-08
rclavicle 4.17448e-15 7.79236e-14 0
rhumerus 3.74785 -24.4097 -0.254631
rradius 27.9485 -0 0
rwrist -11.1037 0 0
rhand -31.2724 -44.0758 7.2074e-06
rfingers 7.12502 -0 0
rthumb -4.54613 -74.0071 6.9854e-06
993
root 1.13221 15.1602 32.4526 5.12575 -4.432 364.015
lfemur 8.67841 1.45732 5.23763
ltibia 3.65764e-14 0 0
lfoot -30.1499 -11.4829 0
ltoes -34.0086 0 0
rfemur -32.4721 -15.7228 -6.21565
rtibia 50.3791 0 0
rfoot -22.8418 4.65935 0
rtoes -42.8594 0 0
lowerback -1.39947 -0.332204 0.592466
upperback -0.692645 -0.446805 -5.81346
thorax 0.0209294 -0.238582 -6.3685
lowerneck -6.82944 1.17959 5.8682
upperneck 1.28 0.966304 3.4411
head 1.56642 0.59664 0.120382
lclavicle 9.34288e-15 3.18055e-14 0
lhumerus -58.4541 -45.6472 115.24
lradius 55.0756 0 0
lwrist 25.2554 0 0
lhand 37.2552 24.3987 0
lfingers 7.12502 0 0
lthumb 60.0836 38.0909 0
rclavicle 9.34288e-15 3.18055e-14 0
rhumerus 3.74465 -24.3614 -0.287339
rradius 27.9225 0 0
rwrist -11.0416 0 0
rhand -31.2714 -44.0197 0
rfingers 7.12502 0 0
rthumb -4.54518 -793.951 0
994
root 1.13288 15.1605 32.4505 5.11196 -4.38398 3.99452
lfemur 8.66101 1.40951 5.26
ltibia 3.65764e-14 -0 0
lfoot -30.147 -11.4563 1.002e-05
ltoes -34.0253 0 0
rfemur -32.4287 -15.727 -6.20468
rtibia 50.3625 -0 0
rfoot -22.828 4.63491 -4.41133e-05
rtoes -42.8765 0 0
lowerback -1.39372 -0.324834 0.582774
upperback -0.685494 -0.436541 -5.81519
thorax 0.0262959 -0.233152 -6.3646
lowerneck -6.85186 1.1688 5.87703
upperneck 1.299 0.948336 3.44693
head 1.57644 0.588769 0.120237
lclavicle 9.34288e-15 3.18055e-14 0
lhumerus -58.4701 -45.6912 115.255
lradius 55.1058 -0 0
lwrist 25.2454 0 0
lhand 37.2453 24.4109 -1.58825e-05
lfingers 7.12502 -0 0
lthumb 60.0751 38.112 -2.35152e-05
rclavicle 9.34288e-15 3.18055e-14 0
rhumerus 3.69857 -24.337 -0.267234
rradius 27.9119 -0 0
rwrist -11.0237 0 0
rhand -31.2484 -43.9785 0.000124004
rfingers 7.12502 -0 0
rthumb -4.52301 -73.9102 0.000118467
